<svg width="480" height="480" viewBox="0 0 480 480" fill="none" xmlns="http://www.w3.org/2000/svg">
<path fill-rule="evenodd" clip-rule="evenodd" d="M240 311C279.212 311 311 279.212 311 240C311 200.788 279.212 169 240 169C200.788 169 169 200.788 169 240C169 279.212 200.788 311 240 311ZM239.5 281C261.868 281 280 262.868 280 240.5C280 218.132 261.868 200 239.5 200C217.132 200 199 218.132 199 240.5C199 262.868 217.132 281 239.5 281Z" fill="#121212"/>
<path fill-rule="evenodd" clip-rule="evenodd" d="M240 311C279.212 311 311 279.212 311 240C311 200.788 279.212 169 240 169C200.788 169 169 200.788 169 240C169 279.212 200.788 311 240 311ZM239.5 281C261.868 281 280 262.868 280 240.5C280 218.132 261.868 200 239.5 200C217.132 200 199 218.132 199 240.5C199 262.868 217.132 281 239.5 281Z" fill="#121212"/>
<path fill-rule="evenodd" clip-rule="evenodd" d="M240 311C279.212 311 311 279.212 311 240C311 200.788 279.212 169 240 169C200.788 169 169 200.788 169 240C169 279.212 200.788 311 240 311ZM239.5 281C261.868 281 280 262.868 280 240.5C280 218.132 261.868 200 239.5 200C217.132 200 199 218.132 199 240.5C199 262.868 217.132 281 239.5 281Z" fill="#121212"/>
<path fill-rule="evenodd" clip-rule="evenodd" d="M240 480C372.548 480 480 372.548 480 240C480 107.452 372.548 0 240 0C107.452 0 0 107.452 0 240C0 372.548 107.452 480 240 480ZM240 334C291.915 334 334 291.915 334 240C334 188.085 291.915 146 240 146C188.085 146 146 188.085 146 240C146 291.915 188.085 334 240 334ZM211.525 57.6523C212.125 63.1425 208.161 68.0794 202.67 68.6793C125.71 77.0878 86.3956 141.032 76.5275 171.983C74.8498 177.245 69.2242 180.151 63.9624 178.473C58.7005 176.795 55.7949 171.17 57.4725 165.908C68.6362 130.893 112.6 58.4012 200.498 48.7976C205.988 48.1978 210.925 52.1621 211.525 57.6523ZM196.11 119.236C201.616 118.81 205.735 114.002 205.31 108.495C204.884 102.989 200.075 98.8699 194.569 99.2955C145.73 103.07 120.102 143.321 113.234 162.722C111.391 167.929 114.117 173.643 119.324 175.486C124.53 177.329 130.244 174.603 132.087 169.396C137.637 153.721 158.464 122.146 196.11 119.236Z" fill="#121212"/>
</svg>
