<svg width="1159" height="292" viewBox="0 0 1159 292" fill="none" xmlns="http://www.w3.org/2000/svg">
<rect x="748" y="87.4643" width="15" height="116.908" rx="7.5" fill="#C2C2C2"/>
<rect x="704" y="110.846" width="15" height="70.1446" rx="7.5" fill="#C2C2C2"/>
<rect x="660" y="77.9384" width="15" height="136.825" rx="7.5" fill="#C2C2C2"/>
<rect x="616" y="64.0827" width="15" height="164.537" rx="7.5" fill="#C2C2C2"/>
<rect x="924" y="93.5262" width="15" height="104.784" rx="7.5" fill="#C2C2C2"/>
<rect x="880" y="122.97" width="15" height="45.8971" rx="7.5" fill="#C2C2C2"/>
<rect x="836" y="101.32" width="15" height="90.0622" rx="7.5" fill="#C2C2C2"/>
<rect x="1144" y="115.176" width="15" height="62.3508" rx="7.5" fill="#C2C2C2"/>
<rect x="1100" y="39.8352" width="15" height="213.032" rx="7.5" fill="#C2C2C2"/>
<rect x="792" y="64.0827" width="15" height="164.537" rx="7.5" fill="#C2C2C2"/>
<rect x="1012" y="87.4643" width="15" height="116.908" rx="7.5" fill="#C2C2C2"/>
<rect x="968" y="110.846" width="15" height="70.1446" rx="7.5" fill="#C2C2C2"/>
<rect x="1056" y="96.1241" width="15" height="100.454" rx="7.5" fill="#C2C2C2"/>
<rect x="396" y="106.516" width="15" height="79.6704" rx="7.5" fill="#C2C2C2"/>
<rect x="352" y="90.9282" width="15" height="110.846" rx="7.5" fill="#C2C2C2"/>
<rect x="220" y="106.516" width="15" height="79.6704" rx="7.5" fill="#C2C2C2"/>
<rect x="176" y="90.9282" width="15" height="110.846" rx="7.5" fill="#C2C2C2"/>
<rect x="308" y="44.1651" width="15" height="204.372" rx="7.5" fill="#C2C2C2"/>
<rect x="264" y="67.5467" width="15" height="157.609" rx="7.5" fill="#C2C2C2"/>
<rect x="44" y="72.7426" width="15" height="147.217" rx="7.5" fill="#C2C2C2"/>
<rect y="90.9282" width="15" height="110.846" rx="7.5" fill="#C2C2C2"/>
<rect x="132" y="116.908" width="15" height="58.0209" rx="7.5" fill="#C2C2C2"/>
<rect x="88" y="9.52582" width="15" height="273.651" rx="7.5" fill="#C2C2C2"/>
<rect x="572" y="28.5774" width="15" height="234.681" rx="7.5" fill="#C2C2C2"/>
<rect x="528" width="15" height="291.836" rx="7.5" fill="#C2C2C2"/>
<rect x="484" y="93.5262" width="15" height="104.784" rx="7.5" fill="#C2C2C2"/>
<rect x="440" y="116.908" width="15" height="58.0209" rx="7.5" fill="#C2C2C2"/>
</svg>
