<svg width="231" height="186" viewBox="0 0 231 186" fill="none" xmlns="http://www.w3.org/2000/svg">
<g filter="url(#filter0_bd_497_183)">
<path fill-rule="evenodd" clip-rule="evenodd" d="M40 20C28.9543 20 20 28.9543 20 40L20 118.443C20 129.488 28.9543 138.443 40 138.443H97.1979L111.571 163.945C113.101 166.66 117.011 166.66 118.541 163.945L132.914 138.443H190.112C201.157 138.443 210.112 129.488 210.112 118.443V40C210.112 28.9543 201.157 20 190.112 20H40Z" fill="white" fill-opacity="0.6"/>
<path d="M115.056 112.793L110.462 108.614C94.1436 93.8303 83.3706 84.0485 83.3706 72.114C83.3706 62.3321 91.0384 54.7029 100.798 54.7029C106.311 54.7029 111.602 57.2671 115.056 61.2874C118.51 57.2671 123.801 54.7029 129.314 54.7029C139.073 54.7029 146.741 62.3321 146.741 72.114C146.741 84.0485 135.968 93.8303 119.65 108.614L115.056 112.793Z" fill="#FF7575"/>
</g>
<defs>
<filter id="filter0_bd_497_183" x="0" y="0" width="230.112" height="185.981" filterUnits="userSpaceOnUse" color-interpolation-filters="sRGB">
<feFlood flood-opacity="0" result="BackgroundImageFix"/>
<feGaussianBlur in="BackgroundImageFix" stdDeviation="2"/>
<feComposite in2="SourceAlpha" operator="in" result="effect1_backgroundBlur_497_183"/>
<feColorMatrix in="SourceAlpha" type="matrix" values="0 0 0 0 0 0 0 0 0 0 0 0 0 0 0 0 0 0 127 0" result="hardAlpha"/>
<feOffset/>
<feGaussianBlur stdDeviation="10"/>
<feComposite in2="hardAlpha" operator="out"/>
<feColorMatrix type="matrix" values="0 0 0 0 0 0 0 0 0 0 0 0 0 0 0 0 0 0 0.15 0"/>
<feBlend mode="normal" in2="effect1_backgroundBlur_497_183" result="effect2_dropShadow_497_183"/>
<feBlend mode="normal" in="SourceGraphic" in2="effect2_dropShadow_497_183" result="shape"/>
</filter>
</defs>
</svg>
