<svg width="929" height="255" viewBox="0 0 929 255" fill="none" xmlns="http://www.w3.org/2000/svg">
<path d="M923.076 149.312L928.645 213.758C922.28 214.996 916.092 215.88 910.081 216.41C904.069 217.117 898.323 217.471 892.842 217.471C880.289 217.471 869.15 215.614 859.426 211.902C849.702 208.012 842.099 201.205 836.618 191.48C831.137 181.579 828.397 167.7 828.397 149.843V106.083H814.075V48.7983H828.927L833.17 27.3165L904.777 20.1558V48.7983H923.872V106.083H904.777V132.604C904.777 139.146 906.014 143.655 908.49 146.13C910.965 148.428 914.413 149.578 918.833 149.578C919.363 149.578 919.982 149.578 920.689 149.578C921.573 149.578 922.369 149.489 923.076 149.312Z" fill="black"/>
<path d="M815.94 121.2C808.161 116.426 799.762 112.89 790.745 110.592C781.905 108.293 771.297 106.702 758.92 105.818C757.683 105.818 756.622 105.818 755.738 105.818C754.854 105.641 753.97 105.553 753.086 105.553C749.903 105.553 748.312 106.791 748.312 109.266C748.312 110.68 749.196 111.653 750.964 112.183C752.732 112.537 755.03 112.979 757.859 113.509C765.108 114.216 772.799 115.277 780.932 116.692C789.066 117.929 796.668 120.228 803.74 123.587C810.813 126.946 816.559 132.074 820.979 138.969C825.399 145.688 827.609 154.882 827.609 166.551C827.609 176.275 825.399 184.408 820.979 190.95C816.559 197.492 810.459 202.708 802.68 206.597C795.077 210.31 786.413 212.962 776.689 214.554C766.965 216.322 756.799 217.206 746.19 217.206C732.753 217.206 719.227 216.145 705.613 214.023C692.176 212.078 680.33 209.957 670.075 207.658L676.44 133.665C679.8 135.963 683.866 138.616 688.64 141.621C693.591 144.45 700.132 147.102 708.265 149.578C716.398 152.053 727.184 153.909 740.621 155.147C741.328 155.324 741.947 155.412 742.477 155.412C743.184 155.412 743.892 155.412 744.599 155.412C747.781 155.412 749.373 154.263 749.373 151.964C749.373 150.373 748.665 149.312 747.251 148.782C745.837 148.251 743.626 147.809 740.621 147.456C732.665 146.395 724.708 145.069 716.752 143.478C708.973 141.886 701.812 139.411 695.27 136.052C688.728 132.693 683.424 128.007 679.358 121.996C675.468 115.808 673.523 107.851 673.523 98.1271C673.523 84.8667 676.794 74.3467 683.336 66.5673C690.054 58.7878 699.071 53.2185 710.387 49.8592C721.703 46.323 734.256 44.555 748.047 44.555C759.893 44.555 772.181 45.5274 784.911 47.4723C797.641 49.2404 810.194 51.6272 822.57 54.6329L815.94 121.2Z" fill="black"/>
<path d="M602.075 41.6377V0H678.455V41.6377H602.075ZM678.455 213.228H602.075V48.7983H678.455V213.228Z" fill="black"/>
<path d="M525.616 9.01709V132.074H606.77V213.228H442.075V9.01709H525.616Z" fill="black"/>
<path d="M333.48 254.07H235.618L262.935 188.298L213.075 48.7983H299.003L306.164 139.234H310.672L310.937 48.7983H396.865L333.48 254.07Z" fill="black"/>
<path d="M78.7669 213.228H0L4.77375 9.01709H107.409L118.548 77.7061H120.935L132.074 9.01709H233.914L238.688 213.228H159.921V107.144H157.534L140.826 213.228H97.8619L81.1538 104.492H78.7669V213.228Z" fill="black"/>
</svg>
