<svg width="22" height="22" viewBox="0 0 22 22" fill="none" xmlns="http://www.w3.org/2000/svg">
<path d="M18.3333 15.5502C17.4044 15.5502 16.5733 15.8815 15.9378 16.4006L7.22333 11.8173C7.28444 11.5633 7.33333 11.3092 7.33333 11.0442C7.33333 10.7791 7.28444 10.5251 7.22333 10.2711L15.84 5.73193C16.5 6.28414 17.3678 6.62651 18.3333 6.62651C20.3622 6.62651 22 5.14659 22 3.31325C22 1.47992 20.3622 0 18.3333 0C16.3044 0 14.6667 1.47992 14.6667 3.31325C14.6667 3.57831 14.7156 3.83233 14.7767 4.08635L6.16 8.6255C5.5 8.07329 4.63222 7.73092 3.66667 7.73092C1.63778 7.73092 0 9.21084 0 11.0442C0 12.8775 1.63778 14.3574 3.66667 14.3574C4.63222 14.3574 5.5 14.0151 6.16 13.4629L14.8622 18.0572C14.8011 18.2892 14.7644 18.5321 14.7644 18.7751C14.7644 20.5532 16.3656 22 18.3333 22C20.3011 22 21.9022 20.5532 21.9022 18.7751C21.9022 16.997 20.3011 15.5502 18.3333 15.5502Z" fill="#F8F8F8"/>
</svg>
